<?xml version="1.0" standalone="no"?><!DOCTYPE svg PUBLIC "-//W3C//DTD SVG 1.1//EN" "http://www.w3.org/Graphics/SVG/1.1/DTD/svg11.dtd"><svg t="1523546283311" class="icon" style="" viewBox="0 0 1092 1024" version="1.1" xmlns="http://www.w3.org/2000/svg" p-id="4298" xmlns:xlink="http://www.w3.org/1999/xlink" width="213.28125" height="200"><defs><style type="text/css"></style></defs><path d="M758.252726 64.020069a269.935247 269.935247 0 0 1 191.897095 77.398495 266.736962 266.736962 0 0 1 77.398495 197.654008A426.011551 426.011551 0 0 1 936.717024 575.745656l22.387995 20.469024-24.946622-17.270739a1455.219638 1455.219638 0 0 1-127.931397 160.553903c-46.055303 49.253588-94.669234 97.227862-145.202136 143.283165-29.424221 26.865593-53.09153 46.69496-63.965698 58.208785a72.920896 72.920896 0 0 1-92.750263 0c-14.072454-11.513826-37.100105-31.982849-63.965698-58.848442-53.731187-48.613931-102.345117-97.227862-145.202135-143.283165a1478.886947 1478.886947 0 0 1-127.931397-159.914246A426.011551 426.011551 0 0 1 64.224898 341.6312a267.376619 267.376619 0 0 1 79.317466-199.572979A272.493875 272.493875 0 0 1 505.588217 127.985768l40.29839 32.622506 40.938047-32.622506a272.493875 272.493875 0 0 1 172.067729-63.965699m0-63.965698a335.18026 335.18026 0 0 0-213.005776 75.479524 336.459574 336.459574 0 0 0-447.759888 20.469023A330.702661 330.702661 0 0 0 0.2592 344.189828a493.175535 493.175535 0 0 0 104.903745 273.773189 1538.375046 1538.375046 0 0 0 136.246938 166.950473c47.334617 51.172559 98.507176 101.065803 149.040077 147.121106 30.703535 27.50525 54.370844 48.613931 69.082954 60.767414a136.886595 136.886595 0 0 0 173.9867 0c14.072454-12.153483 38.379419-32.622506 69.082954-60.127757 50.532902-46.055303 101.065803-95.948548 148.400421-147.121106a1512.14911 1512.14911 0 0 0 136.246937-166.950473 491.896221 491.896221 0 0 0 104.903746-274.412846 330.702661 330.702661 0 0 0-98.507176-248.18691A335.18026 335.18026 0 0 0 758.252726 0.054371z" p-id="4299"></path></svg>