<?xml version="1.0" standalone="no"?><!DOCTYPE svg PUBLIC "-//W3C//DTD SVG 1.1//EN" "http://www.w3.org/Graphics/SVG/1.1/DTD/svg11.dtd"><svg t="1523458552161" class="icon" style="" viewBox="0 0 1024 1024" version="1.1" xmlns="http://www.w3.org/2000/svg" p-id="5830" xmlns:xlink="http://www.w3.org/1999/xlink" width="200" height="200"><defs><style type="text/css"></style></defs><path d="M832 245.76h-153.6v-51.2c0-28.16-23.04-51.2-51.2-51.2h-204.8c-28.16 0-51.2 23.04-51.2 51.2v51.2h-153.6c-56.32 0-102.4 46.08-102.4 102.4v460.8c0 56.32 46.08 102.4 102.4 102.4h614.4c56.32 0 102.4-46.08 102.4-102.4v-460.8c0-56.32-46.08-102.4-102.4-102.4z m-409.6-25.6c0-15.36 10.24-25.6 25.6-25.6h153.6c15.36 0 25.6 10.24 25.6 25.6v25.6h-204.8v-25.6z m460.8 588.8c0 28.16-23.04 51.2-51.2 51.2h-614.4c-28.16 0-51.2-23.04-51.2-51.2v-281.6h258.56c-2.56 7.68-2.56 17.92-2.56 25.6 0 56.32 46.08 102.4 102.4 102.4s102.4-46.08 102.4-102.4c0-7.68-2.56-17.92-2.56-25.6h258.56v281.6z m-409.6-256c0-10.24 2.56-17.92 7.68-25.6h87.04c5.12 7.68 7.68 15.36 7.68 25.6 0 28.16-23.04 51.2-51.2 51.2s-51.2-23.04-51.2-51.2z m409.6-76.8h-716.8v-128c0-28.16 23.04-51.2 51.2-51.2h614.4c28.16 0 51.2 23.04 51.2 51.2v128z" p-id="5831"></path></svg>