<?xml version="1.0" standalone="no"?><!DOCTYPE svg PUBLIC "-//W3C//DTD SVG 1.1//EN" "http://www.w3.org/Graphics/SVG/1.1/DTD/svg11.dtd"><svg t="1523279870383" class="icon" style="" viewBox="0 0 1024 1024" version="1.1" xmlns="http://www.w3.org/2000/svg" p-id="6482" xmlns:xlink="http://www.w3.org/1999/xlink" width="200" height="200"><defs><style type="text/css"></style></defs><path d="M871.537778 118.328889h-728.177778c-38.684444 0-68.266667 29.582222-68.266667 68.266667v634.88c0 36.408889 29.582222 68.266667 68.266667 68.266666h728.177778c36.408889 0 68.266667-31.857778 68.266666-68.266666V186.595556c0-36.408889-29.582222-68.266667-68.266666-68.266667z m-573.44 116.053333c38.684444 0 72.817778 31.857778 72.817778 72.817778s-31.857778 72.817778-72.817778 72.817778c-38.684444 0-72.817778-31.857778-72.817778-72.817778s34.133333-72.817778 72.817778-72.817778z m-52.337778 552.96c-6.826667 0-13.653333-2.275556-20.48-6.826666-13.653333-11.377778-13.653333-27.306667-2.275556-40.96l141.084445-197.973334c11.377778-11.377778 27.306667-13.653333 40.96-4.551111l122.88 86.471111L748.657778 386.844444c11.377778-11.377778 65.991111-70.542222 97.848889-4.551111v402.773334c0 2.275556-600.746667 2.275556-600.746667 2.275555z" fill="" p-id="6483"></path></svg>