<?xml version="1.0" standalone="no"?><!DOCTYPE svg PUBLIC "-//W3C//DTD SVG 1.1//EN" "http://www.w3.org/Graphics/SVG/1.1/DTD/svg11.dtd"><svg t="1523098678267" class="icon" style="" viewBox="0 0 1024 1024" version="1.1" xmlns="http://www.w3.org/2000/svg" p-id="3018" xmlns:xlink="http://www.w3.org/1999/xlink" width="200" height="200"><defs><style type="text/css"></style></defs><path d="M311.664 329.264a68.208 68.208 0 0 0 48.392-20.04c26.64-26.528 26.688-69.816 0-96.384-25.968-25.784-70.92-25.848-96.896 0a67.568 67.568 0 0 0-20.088 48.16c0 18.24 7.144 35.384 20.088 48.28a68.4 68.4 0 0 0 48.504 19.984m26.128-94.336a36.832 36.832 0 0 1-0.008 52.176 36.8 36.8 0 0 1-26.12 10.88c-10 0-19.28-3.88-26.296-10.88a36.32 36.32 0 0 1-10.84-26.112c0-9.816 3.816-19.088 10.84-26.016a36.824 36.824 0 0 1 26.24-10.832c9.872 0 19.168 3.84 26.184 10.784" p-id="3019"></path><path d="M311.664 333.264a72.32 72.32 0 0 1-51.328-21.152 71.696 71.696 0 0 1-21.264-51.12c0-19.248 7.552-37.352 21.264-50.992 13.104-13.04 31.784-20.528 51.232-20.528 19.464 0 38.168 7.48 51.304 20.52a71.464 71.464 0 0 1 21.176 51.016 71.52 71.52 0 0 1-21.168 51.04 72.056 72.056 0 0 1-51.216 21.216z m-0.096-135.784c-17.352 0-33.976 6.632-45.592 18.2a63.52 63.52 0 0 0-18.904 45.32c0 17.16 6.712 33.296 18.912 45.448a64.344 64.344 0 0 0 45.68 18.816 64.136 64.136 0 0 0 45.568-18.872 63.56 63.56 0 0 0 18.824-45.368 63.528 63.528 0 0 0-18.816-45.344c-11.656-11.568-28.296-18.2-45.672-18.2z m0.096 104.512a40.96 40.96 0 0 1-29.12-12.048 40.24 40.24 0 0 1-12.016-28.944c0-10.968 4.272-21.216 12.032-28.864a40.856 40.856 0 0 1 29.048-11.992c10.92 0 21.216 4.24 28.992 11.936a40.64 40.64 0 0 1 12.016 29.008 40.448 40.448 0 0 1-12.016 28.848 40.72 40.72 0 0 1-28.936 12.056z m-0.056-73.848a32.944 32.944 0 0 0-23.416 9.664 32.28 32.28 0 0 0-9.664 23.184c0 8.88 3.424 17.144 9.648 23.256a33.04 33.04 0 0 0 23.496 9.736 32.768 32.768 0 0 0 23.288-9.712 32.504 32.504 0 0 0 9.664-23.192 32.696 32.696 0 0 0-9.656-23.328 33.04 33.04 0 0 0-23.36-9.608z" p-id="3020"></path><path d="M151.68 101.864a15.4 15.4 0 0 0-4.616 11.832l18.136 352.528c0.216 3.84 1.832 7.472 4.624 10.256l411.08 409.232a15.88 15.88 0 0 0 22.256 0l335.872-334.48c2.96-2.888 4.632-6.856 4.632-11.072a15.36 15.36 0 0 0-4.632-11.016L528.008 119.912a15.352 15.352 0 0 0-10.32-4.552l-354.152-18.064c-4.368-0.736-8.84 1.368-11.856 4.568m27.616 27.52l330.752 16.864 395.672 393.92-313.752 312.328-395.664-393.896-17.008-329.216z" p-id="3021"></path><path d="M591.968 894.272a19.792 19.792 0 0 1-13.856-5.688L167 479.328a19.768 19.768 0 0 1-5.8-12.864l-18.136-352.552a19.384 19.384 0 0 1 5.816-14.904c4.056-4.32 9.8-6.568 15.32-5.656l353.688 18.008a19.224 19.224 0 0 1 12.944 5.72l411.016 409.24c3.68 3.568 5.816 8.632 5.816 13.848 0 5.312-2.072 10.256-5.832 13.928l-335.848 334.456a19.96 19.96 0 0 1-14.016 5.72zM161.768 101.144c-2.456 0-5.136 1.296-7.168 3.464a11.48 11.48 0 0 0-3.536 8.872l18.136 352.544c0.16 2.856 1.384 5.576 3.456 7.632l411.072 409.224c4.52 4.424 12.2 4.336 16.64-0.024l335.848-334.456c2.232-2.184 3.456-5.104 3.456-8.232 0-3.072-1.248-6.04-3.424-8.152l-411.056-409.28a11.392 11.392 0 0 0-7.672-3.392L163.344 101.28a12.56 12.56 0 0 0-1.576-0.136z m430.2 757L192.392 460.344l-0.08-1.536-17.232-333.64 336.704 17.168 399.608 397.832-319.424 317.976zM200.216 456.848l391.752 390.008 308.08-306.688-391.736-390-324.792-16.56 16.696 323.24z" p-id="3022"></path><path d="M677.792 662.808a15.6 15.6 0 0 0 0-22.168l-187.2-186.304a15.8 15.8 0 0 0-22.208 0 15.584 15.584 0 0 0 0 22.152l187.152 186.32c3.08 3.064 7.08 4.6 11.072 4.6 4.04 0 8.104-1.544 11.184-4.6" p-id="3023"></path><path d="M666.6 671.408c-5.216 0-10.16-2.048-13.888-5.768l-187.152-186.32c-3.736-3.728-5.8-8.664-5.8-13.912s2.056-10.176 5.792-13.904c7.456-7.4 20.448-7.376 27.856 0l187.192 186.296c3.736 3.72 5.8 8.656 5.8 13.904 0 5.256-2.056 10.2-5.792 13.928a19.696 19.696 0 0 1-14.008 5.776zM479.496 453.784c-3.136 0-6.08 1.208-8.296 3.4a11.592 11.592 0 0 0 0.008 16.472l187.144 186.312c4.504 4.496 12.208 4.392 16.616 0a11.608 11.608 0 0 0 0-16.496L487.776 457.176a11.68 11.68 0 0 0-8.28-3.392z" p-id="3024"></path><path d="M543.032 380.032a15.68 15.68 0 0 0 0 22.16L730.16 588.456c3.08 3.08 7.08 4.584 11.136 4.584 4.04 0 7.992-1.504 11.072-4.584 6.16-6.072 6.16-15.976 0-22.104l-187.112-186.32a15.88 15.88 0 0 0-22.224 0" p-id="3025"></path><path d="M741.288 597.04a19.608 19.608 0 0 1-13.96-5.76l-187.12-186.256a19.76 19.76 0 0 1-0.016-27.816c7.512-7.4 20.424-7.368 27.856-0.024l187.128 186.328c3.752 3.736 5.816 8.688 5.8 13.952a19.376 19.376 0 0 1-5.816 13.832 19.472 19.472 0 0 1-13.872 5.744zM554.152 379.496c-3.136 0-6.088 1.208-8.312 3.392a11.72 11.72 0 0 0 0.032 16.488l187.112 186.248c4.424 4.424 12.088 4.48 16.552 0.008a11.496 11.496 0 0 0 0.008-16.432L562.432 382.88a11.696 11.696 0 0 0-8.28-3.384z" p-id="3026"></path></svg>