<svg version="1.1" role="presentation" width="4.571428571428571" height="4.571428571428571" viewBox="0 0 512 512" class="svg-icon active" style="width:22px;height:22px;transform:rotate(0deg) scale(1,1);"><path d="M381.7,225.9c0-97.6-52.5-130.8-101.6-138.2c0-0.5,0.1-1,0.1-1.6c0-12.3-10.9-22.1-24.2-22.1c-13.3,0-23.8,9.8-23.8,22.1
		c0,0.6,0,1.1,0.1,1.6c-49.2,7.5-102,40.8-102,138.4c0,113.8-28.3,126-66.3,158h384C410.2,352,381.7,339.7,381.7,225.9z" stroke="transparent"></path><path d="M256.2,448c26.8,0,48.8-19.9,51.7-43H204.5C207.3,428.1,229.4,448,256.2,448z" stroke="transparent"></path></svg>
