<?xml version="1.0" standalone="no"?><!DOCTYPE svg PUBLIC "-//W3C//DTD SVG 1.1//EN" "http://www.w3.org/Graphics/SVG/1.1/DTD/svg11.dtd"><svg t="1523279708176" class="icon" style="" viewBox="0 0 1024 1024" version="1.1" xmlns="http://www.w3.org/2000/svg" p-id="4509" xmlns:xlink="http://www.w3.org/1999/xlink" width="200" height="200"><defs><style type="text/css"></style></defs><path d="M900.135587 904.575981" p-id="4510"></path><path d="M726.087197 993.052712l-428.084081 0c-25.347876 0-45.894106-22.277231-45.894106-49.762517L252.109011 80.724857c0-27.485286 20.54623-49.747464 45.894106-49.747464l428.084081 0c25.317772 0 45.818845 22.262178 45.818845 49.747464l0 862.565339C771.906041 970.760429 751.404968 993.052712 726.087197 993.052712zM512.180626 943.290196c16.888549 0 30.586036-14.856504 30.586036-33.190063 0-18.303454-13.697486-33.159959-30.586036-33.159959-16.918654 0-30.601088 14.856504-30.601088 33.159959C481.579538 928.433691 495.277025 943.290196 512.180626 943.290196zM726.087197 130.472321l-15.277966 0L313.311186 130.472321l-15.30807 0 0 696.720388 15.30807 0 397.513097 0 15.277966 0L726.102249 130.472321z" p-id="4511"></path></svg>