<?xml version="1.0" standalone="no"?><!DOCTYPE svg PUBLIC "-//W3C//DTD SVG 1.1//EN" "http://www.w3.org/Graphics/SVG/1.1/DTD/svg11.dtd"><svg t="1523279794269" class="icon" style="" viewBox="0 0 1024 1024" version="1.1" xmlns="http://www.w3.org/2000/svg" p-id="4885" xmlns:xlink="http://www.w3.org/1999/xlink" width="200" height="200"><defs><style type="text/css"></style></defs><path d="M893.552914 63.119459H127.169629c-35.123362 0-63.71536 28.577663-63.71536 63.701025v767.080551c0 35.123362 28.590974 63.701025 63.71536 63.701026h766.383285c35.124386 0 63.71536-28.577663 63.71536-63.701026V126.821508c0-35.124386-28.590974-63.702049-63.71536-63.702049z m-774.118739 187.988417H901.288368v526.215624H119.434175v-526.215624z m7.735454-132.008511h766.383285c4.264482 0 7.735454 3.457661 7.735454 7.722143v68.307486H119.434175V126.821508c0-4.264482 3.470971-7.722143 7.735454-7.722143z m766.383285 782.523813H127.169629c-4.264482 0-7.735454-3.457661-7.735454-7.722143V833.302382H901.288368v60.598653c0 4.264482-3.470971 7.722143-7.735454 7.722143z" fill="#3E3A39" p-id="4886"></path><path d="M676.824036 486.110036l-224.054778-129.357672a27.981762 27.981762 0 0 0-27.989953 0 27.98381 27.98381 0 0 0-13.994465 24.24458v258.727631a27.984834 27.984834 0 0 0 13.994465 24.24458 27.903947 27.903947 0 0 0 13.994464 3.744349 27.911114 27.911114 0 0 0 13.994465-3.744349l224.054778-129.370982a27.98381 27.98381 0 0 0 13.994464-24.244581 27.979714 27.979714 0 0 0-13.99344-24.243556z m-210.060314 105.138688V429.473819l140.084919 80.880797-140.084919 80.894108z" p-id="4887"></path></svg>