<svg version="1.1" role="presentation" width="9.142857142857142" height="9.142857142857142" viewBox="0 0 1024 1024" class="svg-icon active" style="width: 40px; height: 40px; transform: rotate(0deg) scale(1, 1);"><path d="M859.428571 512l78.857143 77.142857q17.142857 16 11.428571 40-6.857143 23.428571-29.714286 29.142857l-107.428571 27.428571 30.285714 106.285714q6.857143 23.428571-10.857143 40-16.571429 17.714286-40 10.857143l-106.285714-30.285714-27.428571 107.428571q-5.714286 22.857143-29.142857 29.714286-6.857143 1.142857-10.857143 1.142857-17.714286 0-29.142857-12.571429l-77.142857-78.857143-77.142857 78.857143q-16 17.142857-40 11.428571-23.428571-6.285714-29.142857-29.714286l-27.428571-107.428571-106.285714 30.285714q-23.428571 6.857143-40-10.857143-17.714286-16.571429-10.857143-40l30.285714-106.285714-107.428571-27.428571q-22.857143-5.714286-29.714286-29.142857-5.714286-24 11.428571-40l78.857143-77.142857-78.857143-77.142857q-17.142857-16-11.428571-40 6.857143-23.428571 29.714286-29.142857l107.428571-27.428571-30.285714-106.285714q-6.857143-23.428571 10.857143-40 16.571429-17.714286 40-10.857143l106.285714 30.285714 27.428571-107.428571q5.714286-23.428571 29.142857-29.142857 23.428571-6.857143 40 10.857143l77.142857 79.428571 77.142857-79.428571q16.571429-17.142857 40-10.857143 23.428571 5.714286 29.142857 29.142857l27.428571 107.428571 106.285714-30.285714q23.428571-6.857143 40 10.857143 17.714286 16.571429 10.857143 40l-30.285714 106.285714 107.428571 27.428571q22.857143 5.714286 29.714286 29.142857 5.714286 24-11.428571 40z" stroke="transparent"></path></svg>