<?xml version="1.0" standalone="no"?><!DOCTYPE svg PUBLIC "-//W3C//DTD SVG 1.1//EN" "http://www.w3.org/Graphics/SVG/1.1/DTD/svg11.dtd"><svg t="1523451428043" class="icon" style="" viewBox="0 0 1024 1024" version="1.1" xmlns="http://www.w3.org/2000/svg" p-id="2483" xmlns:xlink="http://www.w3.org/1999/xlink" width="200" height="200"><defs><style type="text/css"></style></defs><path d="M972.868267 76.202667a33.5872 33.5872 0 0 0-25.070934-25.070934c-183.3472-42.120533-383.351467 8.004267-525.858133 150.510934a560.9472 560.9472 0 0 0-55.415467 64.631466c-4.7616 6.485333-11.5712 10.973867-19.370666 12.9024-74.4448 18.432-146.158933 57.326933-205.704534 116.872534a450.338133 450.338133 0 0 0-69.0688 88.814933c-16.2816 27.4944 11.6224 59.921067 41.591467 48.8448 47.291733-17.476267 98.389333-26.0608 151.057067-26.094933-0.733867 4.488533-1.792 8.925867-2.423467 13.4144a2271.232 2271.232 0 0 0 115.592533 124.7744 2265.070933 2265.070933 0 0 0 124.7744 115.592533c4.488533-0.631467 8.925867-1.6896 13.397334-2.423467-0.034133 52.667733-8.618667 103.765333-26.094934 151.057067-11.076267 29.969067 21.3504 57.873067 48.8448 41.591467a450.440533 450.440533 0 0 0 88.832-69.0688c59.528533-59.528533 98.423467-131.259733 116.855467-205.687467 1.928533-7.799467 6.434133-14.609067 12.9024-19.370667a560.9472 560.9472 0 0 0 64.631467-55.415466c142.523733-142.5408 192.648533-342.528 150.528-525.8752zM743.185067 442.043733a114.005333 114.005333 0 1 1-161.245867-161.245866 114.005333 114.005333 0 0 1 161.245867 161.245866z" fill="#040000" p-id="2484"></path><path d="M183.483733 689.493333C148.923733 724.053333 2.4064 938.1888 44.117333 979.899733c41.710933 41.710933 255.8464-104.823467 290.4064-139.3664 34.56-34.56 28.757333-96.375467-12.9536-138.069333-41.710933-41.728-103.543467-47.530667-138.0864-12.970667z" p-id="2485"></path></svg>