<?xml version="1.0" standalone="no"?><!DOCTYPE svg PUBLIC "-//W3C//DTD SVG 1.1//EN" "http://www.w3.org/Graphics/SVG/1.1/DTD/svg11.dtd"><svg t="1523458486381" class="icon" style="" viewBox="0 0 1024 1024" version="1.1" xmlns="http://www.w3.org/2000/svg" p-id="4579" xmlns:xlink="http://www.w3.org/1999/xlink" width="200" height="200"><defs><style type="text/css"></style></defs><path d="M930.909091 0H93.090909C37.236364 0 0 37.236364 0 93.090909v162.909091c0 55.854545 37.236364 93.090909 93.090909 93.090909h837.818182c55.854545 0 93.090909-37.236364 93.090909-93.090909V93.090909c0-55.854545-37.236364-93.090909-93.090909-93.090909z m46.545454 256c0 30.254545-16.290909 46.545455-46.545454 46.545455H93.090909c-30.254545 0-46.545455-16.290909-46.545454-46.545455V93.090909c0-30.254545 16.290909-46.545455 46.545454-46.545454h837.818182c30.254545 0 46.545455 16.290909 46.545454 46.545454v162.909091z m-698.181818 209.454545H93.090909c-55.854545 0-93.090909 37.236364-93.090909 93.09091v372.363636c0 55.854545 37.236364 93.090909 93.090909 93.090909h186.181818c55.854545 0 93.090909-37.236364 93.090909-93.090909V558.545455c2.327273-58.181818-37.236364-93.090909-93.090909-93.09091z m46.545455 465.454546c0 30.254545-16.290909 46.545455-46.545455 46.545454H93.090909c-30.254545 0-46.545455-16.290909-46.545454-46.545454V558.545455c0-30.254545 16.290909-46.545455 46.545454-46.545455h186.181818c30.254545 0 46.545455 16.290909 46.545455 46.545455v372.363636z m674.909091-465.454546H535.272727c-13.963636 0-23.272727 9.309091-23.272727 23.272728s9.309091 23.272727 23.272727 23.272727h465.454546c13.963636 0 23.272727-9.309091 23.272727-20.945455 0-13.963636-9.309091-25.6-23.272727-25.6z m0 256H535.272727c-13.963636 0-23.272727 9.309091-23.272727 23.272728s9.309091 23.272727 23.272727 23.272727h465.454546c13.963636 0 23.272727-9.309091 23.272727-23.272727 0-11.636364-9.309091-23.272727-23.272727-23.272728z m0 256H535.272727c-13.963636 0-23.272727 9.309091-23.272727 23.272728s9.309091 23.272727 23.272727 23.272727h465.454546c13.963636 0 23.272727-9.309091 23.272727-23.272727s-11.636364-23.272727-23.272727-23.272728z" p-id="4580"></path></svg>