<?xml version="1.0" standalone="no"?><!DOCTYPE svg PUBLIC "-//W3C//DTD SVG 1.1//EN" "http://www.w3.org/Graphics/SVG/1.1/DTD/svg11.dtd"><svg t="1523458614976" class="icon" style="" viewBox="0 0 1024 1024" version="1.1" xmlns="http://www.w3.org/2000/svg" p-id="6635" xmlns:xlink="http://www.w3.org/1999/xlink" width="200" height="200"><defs><style type="text/css"></style></defs><path d="M529.075399 63.978127c57.935504 0 114.131387 11.343349 167.027108 33.716916 51.101865 21.614274 97.002264 52.5611 136.425136 91.980901 39.423895 39.420825 70.374814 85.319178 91.993181 136.420019 22.376637 52.896744 33.723056 109.09672 33.723056 167.040411 0 57.935504-11.346419 114.131387-33.723056 167.025061-21.618367 51.096748-52.569286 96.992031-91.993181 136.411833-39.422871 39.418778-85.324294 70.364581-136.425136 91.978854-52.893674 22.370497-109.089557 33.714869-167.027108 33.714869s-114.130364-11.343349-167.019944-33.714869c-51.096748-21.61325-96.989985-52.55803-136.40774-91.977831-39.416731-39.418778-70.361511-85.313038-91.974761-136.411833-22.37152-52.892651-33.714869-109.088534-33.714869-167.026084 0-57.944713 11.343349-114.145713 33.715893-167.041434 21.61325-51.101865 52.557006-97.000218 91.974761-136.420019 39.416731-39.418778 85.310991-70.366627 136.406716-91.979878C414.945035 75.321476 471.138872 63.978127 529.075399 63.978127M529.075399 43.512003c-248.28683 0-449.583438 201.302749-449.583438 449.624371 0 248.295016 201.296609 449.594695 449.583438 449.594695 248.281713 0 449.63665-201.301725 449.63665-449.594695C978.711026 244.814752 777.357112 43.512003 529.075399 43.512003L529.075399 43.512003z" p-id="6636"></path><path d="M827.812247 285.215904l-86.634126 81.941244-77.278037-70.250994 83.122139-93.631494c-272.801153-23.381523-200.712301 215.419258-200.712301 215.419258L269.94357 671.599951c-18.111496 37.484729-8.836249 80.789001-8.836249 80.789001 5.845125 23.435759 28.101012 30.462802 28.101012 30.462802 26.920116 7.023974 74.943876-9.606799 74.943876-9.606799l254.085906-280.129049C884.040876 532.413935 827.812247 285.215904 827.812247 285.215904zM610.717837 463.370443 354.299817 750.248196c0 0-44.48312 15.257495-58.534138 10.539031 0 0-10.538007-0.056282-15.229866-22.282492 0 0-0.63138-33.313733 7.024997-54.991452l285.698904-257.627569c0 0-76.125795-190.83228 125.272122-201.370287l-65.557088 72.611761 106.530268 98.353029 71.432912-64.434521C810.934858 331.044672 820.292993 519.571443 610.717837 463.370443z" p-id="6637"></path></svg>